# xmcd CD database file
#
# Track frame offsets:
#	150
#	35434
#	49161
#	61261
#	83795
#	100903
#	120700
#	141054
#	154918
#	174173
#
# Disc length: 2533 seconds
#
# Revision: 0
# Processed by: cddbd v1.5.1PL0 Copyright (c) Steve Scherf et al.
# Submitted via: CDex 1.51
#
DISCID=7c09e30a
DTITLE=Funky Butt - Big Mama
DYEAR=2005
DGENRE=Jazz
TTITLE0=Funky Butt suite
TTITLE1=Brinken
TTITLE2=Fruitcake rag
TTITLE3=Mystical
TTITLE4=Where to put it?
TTITLE5=Somewhere warm and moist
TTITLE6=Wrapped in gloves
TTITLE7=Je m'apelle Even
TTITLE8=Sofia's wedding night
TTITLE9=Fabulous
EXTD=YEAR: 2005
EXTT0=
EXTT1=
EXTT2=
EXTT3=
EXTT4=
EXTT5=
EXTT6=
EXTT7=
EXTT8=
EXTT9=
PLAYORDER=
